<svg xmlns="http://www.w3.org/2000/svg"
  xmlns:xlink="http://www.w3.org/1999/xlink" version="1.1" x="0px" y="0px" viewBox="0 0 1024 1024" style="enable-background:new 0 0 1024 1024;" xml:space="preserve">
  <g>
    <path fill="#FFF" d="M861.4,939.8H162.6c-43.5,0-78.8-35.3-78.8-78.8V166.7c0-45.4,37-82.4,82.4-82.4h552.3c12,0,23.3,4.7,31.9,13.2   l176.7,176.7c8.3,8.2,13.1,19.8,13.1,31.8v555C940.2,904.5,904.9,939.8,861.4,939.8z M166.2,104.3c-34.4,0-62.4,28-62.4,62.4V861   c0,32.4,26.4,58.8,58.8,58.8h698.8c32.4,0,58.8-26.4,58.8-58.8V306c0-6.7-2.6-13.1-7.2-17.6L736.2,111.7c-4.8-4.8-11-7.4-17.7-7.4   H166.2z"/>
    <path fill="#FFF" d="M930.2,301.4H804.3c-44.8,0-81.3-36.5-81.3-81.3V94.3h20v125.8c0,33.8,27.5,61.3,61.3,61.3h125.9V301.4z"/>
    <path fill="#FFF" d="M344.1,454.9c-35.7,0-64.7-29-64.7-64.7s29-64.7,64.7-64.7s64.7,29,64.7,64.7S379.8,454.9,344.1,454.9z M344.1,345.5   c-24.6,0-44.7,20.1-44.7,44.7c0,24.6,20.1,44.7,44.7,44.7c24.6,0,44.7-20.1,44.7-44.7C388.8,365.6,368.7,345.5,344.1,345.5z"/>
    <path fill="#FFF" d="M678.8,454.9c-35.7,0-64.7-29-64.7-64.7s29-64.7,64.7-64.7s64.7,29,64.7,64.7S714.5,454.9,678.8,454.9z M678.8,345.5   c-24.6,0-44.7,20.1-44.7,44.7c0,24.6,20.1,44.7,44.7,44.7s44.7-20.1,44.7-44.7C723.5,365.6,703.4,345.5,678.8,345.5z"/>
    <path fill="#FFF" d="M512,778.5c-93.9,0-181.4-42-240.2-115.3l15.6-12.5c55,68.5,136.8,107.9,224.6,107.9s169.6-39.3,224.6-107.9l15.6,12.5   C693.4,736.5,605.9,778.5,512,778.5z"/>
    <rect fill="#FFF" x="501.4" y="511.8" width="20" height="64.9"/>
  </g>
</svg>