<svg xmlns="http://www.w3.org/2000/svg" data-name="Layer 1" viewBox="0 0 64 64" x="0px" y="0px">
  <title>payment</title>
  <path fill="#FFF" d="M24,28H20a3,3,0,0,0-3,3v2a3,3,0,0,0,3,3h4a3,3,0,0,0,3-3V31A3,3,0,0,0,24,28Zm1,5a1,1,0,0,1-1,1H20a1,1,0,0,1-1-1V31a1,1,0,0,1,1-1h4a1,1,0,0,1,1,1Z"/>
  <path fill="#FFF" d="M58,23H16a4,4,0,0,0-4,4V55a4,4,0,0,0,4,4H58a4,4,0,0,0,4-4V27A4,4,0,0,0,58,23Zm2,32a2,2,0,0,1-2,2H16a2,2,0,0,1-2-2V27a2,2,0,0,1,2-2H58a2,2,0,0,1,2,2Z"/>
  <path fill="#FFF" d="M54,51H30a1,1,0,0,0,0,2H54a1,1,0,0,0,0-2Z"/>
  <path fill="#FFF" d="M54,46H40a1,1,0,0,0,0,2H54a1,1,0,0,0,0-2Z"/>
  <path fill="#FFF" d="M9,39H6a2,2,0,0,1-2-2V19H50v.5a1,1,0,0,0,2,0V9a4,4,0,0,0-4-4H6A4,4,0,0,0,2,9V37a4,4,0,0,0,4,4H9a1,1,0,0,0,0-2ZM6,7H48a2,2,0,0,1,2,2v3H4V9A2,2,0,0,1,6,7Z"/>
</svg>