<svg xmlns="http://www.w3.org/2000/svg"
  xmlns:xlink="http://www.w3.org/1999/xlink" version="1.1" x="0px" y="0px" viewBox="0 0 1024 1024" style="enable-background:new 0 0 1024 1024;" xml:space="preserve">
  <g>
    <path fill="#FFF" d="M861.4,949.8H162.6c-49,0-88.8-39.8-88.8-88.8V166.7c0-50.9,41.5-92.4,92.4-92.4h552.3c14.7,0,28.5,5.7,38.9,16.2   l176.7,176.7c10.2,10.1,16.1,24.3,16.1,38.9v555C950.2,910,910.4,949.8,861.4,949.8z M166.2,114.3c-28.9,0-52.4,23.5-52.4,52.4V861   c0,26.9,21.9,48.8,48.8,48.8h698.8c26.9,0,48.8-21.9,48.8-48.8V306c0-3.9-1.6-7.8-4.2-10.4c0,0-0.1-0.1-0.1-0.1L729.2,118.7   c-2.9-2.9-6.6-4.4-10.7-4.4H166.2z"/>
    <path fill="#FFF" d="M930.2,311.4H804.3c-50.3,0-91.3-41-91.3-91.3V94.3h40v125.8c0,28.3,23,51.3,51.3,51.3h125.9V311.4z"/>
    <path fill="#FFF" d="M344.1,464.9c-41.2,0-74.7-33.5-74.7-74.7c0-41.2,33.5-74.7,74.7-74.7c41.2,0,74.7,33.5,74.7,74.7   C418.8,431.4,385.3,464.9,344.1,464.9z M344.1,355.5c-19.1,0-34.7,15.6-34.7,34.7c0,19.1,15.6,34.7,34.7,34.7   c19.1,0,34.7-15.6,34.7-34.7C378.8,371.1,363.2,355.5,344.1,355.5z"/>
    <path fill="#FFF" d="M678.8,464.9c-41.2,0-74.7-33.5-74.7-74.7c0-41.2,33.5-74.7,74.7-74.7s74.7,33.5,74.7,74.7   C753.5,431.4,720,464.9,678.8,464.9z M678.8,355.5c-19.1,0-34.7,15.6-34.7,34.7c0,19.1,15.6,34.7,34.7,34.7s34.7-15.6,34.7-34.7   C713.5,371.1,697.9,355.5,678.8,355.5z"/>
    <path fill="#FFF" d="M728.8,781C675.7,714.9,596.7,676.9,512,676.9c-84.7,0-163.7,37.9-216.8,104.1L264,756c60.7-75.7,151.1-119.1,248-119.1   c96.8,0,187.2,43.4,248,119.1L728.8,781z"/>
    <rect fill="#FFF" x="491.4" y="491.8" width="40" height="64.9"/>
  </g>
</svg>